<?xml version="1.0" standalone="no"?>
<!DOCTYPE svg PUBLIC "-//W3C//DTD SVG 20010904//EN"
 "http://www.w3.org/TR/2001/REC-SVG-20010904/DTD/svg10.dtd">
<svg class="svg" version="1.0" xmlns="http://www.w3.org/2000/svg"
 width="640.000000pt" height="1280.000000pt" viewBox="0 0 640.000000 1280.000000"
 preserveAspectRatio="xMidYMid meet">
<metadata>
Created by potrace 1.15, written by Peter Selinger 2001-2017
</metadata>
<g transform="translate(0.000000,1280.000000) scale(0.100000,-0.100000)"
fill="#ffffff" stroke="none">
<path d="M1728 12778 c-80 -122 -132 -310 -145 -521 -7 -117 -3 -127 46 -127
32 0 29 -10 -77 -240 -296 -643 -474 -1239 -536 -1800 -70 -626 -118 -1891
-132 -3475 -6 -570 -4 -760 6 -865 26 -268 11 -536 -50 -885 -15 -88 -62 -347
-104 -575 -260 -1412 -448 -2731 -496 -3470 -14 -215 -9 -258 38 -306 80 -83
414 -272 677 -384 146 -62 324 -119 392 -126 l59 -6 97 66 c151 102 1087 801
1087 811 0 2 4 47 10 101 25 254 54 1024 135 3574 46 1449 42 1396 112 1655
81 301 464 1470 633 1930 5 14 17 -11 45 -95 39 -118 147 -391 323 -815 170
-411 210 -537 285 -902 32 -155 33 -160 20 -253 -91 -666 -149 -1681 -162
-2830 -8 -760 5 -2232 20 -2278 36 -111 318 -150 1004 -138 511 8 760 25 975
66 91 18 169 36 174 40 9 9 -8 532 -29 865 -27 424 -71 951 -175 2110 -84 938
-108 1340 -120 2000 -11 642 -35 1011 -85 1330 -8 50 -21 218 -30 375 -24 425
-71 1058 -215 2900 -16 212 -41 538 -55 725 -30 407 -51 512 -150 756 -4 11 0
18 14 22 23 6 41 61 41 130 0 98 -51 458 -81 570 -9 36 -12 38 -37 32 -133
-34 -348 -72 -353 -63 -7 11 -108 -10 -179 -37 -32 -13 -127 -29 -325 -55
-170 -23 -427 -30 -669 -20 -289 13 -770 56 -774 70 -2 6 -45 10 -102 10 -118
0 -572 55 -615 74 -16 8 -70 17 -120 20 -77 6 -272 36 -341 52 -14 4 -26 -2
-36 -18z"/>
</g>
</svg>
